<svg width="109" height="109" viewBox="0 0 109 109" fill="none" xmlns="http://www.w3.org/2000/svg">
<g clip-path="url(#clip0_44_2)">
<path d="M54.5025 109.005C84.6034 109.005 109.005 84.6034 109.005 54.5025C109.005 24.4016 84.6034 0 54.5025 0C24.4016 0 0 24.4016 0 54.5025C0 84.6034 24.4016 109.005 54.5025 109.005Z" fill="#2D5334"/>
<path d="M84.4045 82.5222C81.6711 80.78 78.5072 79.8589 75.2481 79.8589C71.4484 79.8589 67.8089 81.1104 64.8352 83.4133C62.3772 81.5109 59.4586 80.3295 56.3798 79.974V69.1807C57.0456 69.2558 57.7164 69.2958 58.3872 69.2958C63.6387 69.2958 69.0254 67.018 73.1205 62.9229C78.2468 57.7966 80.5197 50.6577 79.0578 44.2848L78.7925 43.1384L77.6461 42.8731C71.2782 41.4113 64.1344 43.6841 59.008 48.8104C57.0906 50.7278 55.5738 52.9255 54.4974 55.2634C53.4261 52.9255 51.9042 50.7278 49.9868 48.8104C44.8605 43.6841 37.7166 41.4113 31.3488 42.8731L30.2023 43.1384L29.937 44.2848C28.4752 50.6527 30.748 57.7966 35.8744 62.9229C39.9744 67.023 45.3561 69.2958 50.6076 69.2958C51.2784 69.2958 51.9493 69.2558 52.6151 69.1807V79.959C49.4762 80.2894 46.5025 81.4809 43.9994 83.4133C41.0257 81.1104 37.3862 79.8589 33.5865 79.8589C30.4026 79.8589 27.2987 80.74 24.6104 82.4121C23.7293 82.9577 23.459 84.1142 24.0047 84.9953C24.5503 85.8764 25.7068 86.1467 26.5879 85.601C28.6855 84.2994 31.1034 83.6136 33.5865 83.6136C36.9907 83.6136 40.2297 84.9052 42.7078 87.243C43.4337 87.9289 44.5651 87.9239 45.286 87.243C47.7641 84.9001 51.0031 83.6136 54.4123 83.6136C57.8215 83.6136 61.0555 84.9052 63.5386 87.243C63.8991 87.5835 64.3646 87.7537 64.8252 87.7537C65.2858 87.7537 65.7514 87.5835 66.1168 87.243C68.5949 84.9001 71.8339 83.6136 75.2381 83.6136C77.7763 83.6136 80.2443 84.3294 82.3719 85.6911C83.248 86.2468 84.4045 85.9915 84.9652 85.1154C85.5208 84.2393 85.2655 83.0779 84.3895 82.5222H84.4045ZM61.6663 51.4637C65.5611 47.5689 70.8076 45.6565 75.6186 46.3123C76.2744 51.1233 74.362 56.3648 70.4672 60.2646C66.5724 64.1594 61.3309 66.0718 56.5149 65.416C55.8591 60.605 57.7715 55.3636 61.6663 51.4637ZM52.4849 65.416C47.674 66.0718 42.4325 64.1645 38.5326 60.2646C34.6378 56.3698 32.7255 51.1283 33.3813 46.3123C38.1922 45.6565 43.4387 47.5689 47.3335 51.4637C51.2284 55.3586 53.1407 60.605 52.4849 65.416Z" fill="white"/>
<path d="M30.5578 65.9066C30.5578 61.7565 27.1786 58.3773 23.0285 58.3773C18.8783 58.3773 15.4991 61.7565 15.4991 65.9066C15.4991 70.0568 18.8783 73.436 23.0285 73.436C27.1786 73.436 30.5578 70.0568 30.5578 65.9066ZM23.0285 69.6813C20.9459 69.6813 19.2538 67.9892 19.2538 65.9066C19.2538 63.8241 20.9459 62.132 23.0285 62.132C25.111 62.132 26.8031 63.8241 26.8031 65.9066C26.8031 67.9892 25.111 69.6813 23.0285 69.6813Z" fill="white"/>
<path d="M85.9765 58.3723C81.8213 58.3723 78.4471 61.7515 78.4471 65.9016C78.4471 70.0518 81.8263 73.431 85.9765 73.431C90.1266 73.431 93.5058 70.0518 93.5058 65.9016C93.5058 61.7515 90.1266 58.3723 85.9765 58.3723ZM85.9765 69.6813C83.8939 69.6813 82.2018 67.9892 82.2018 65.9066C82.2018 63.8241 83.8939 62.132 85.9765 62.132C88.0591 62.132 89.7511 63.8241 89.7511 65.9066C89.7511 67.9892 88.0591 69.6813 85.9765 69.6813Z" fill="white"/>
<path d="M76.1292 36.31C80.2843 36.31 83.6585 32.9308 83.6585 28.7806C83.6585 24.6305 80.2793 21.2513 76.1292 21.2513C71.979 21.2513 68.5999 24.6305 68.5999 28.7806C68.5999 32.9308 71.979 36.31 76.1292 36.31ZM76.1292 25.001C78.2118 25.001 79.9039 26.6931 79.9039 28.7756C79.9039 30.8582 78.2118 32.5503 76.1292 32.5503C74.0466 32.5503 72.3545 30.8582 72.3545 28.7756C72.3545 26.6931 74.0466 25.001 76.1292 25.001Z" fill="white"/>
<path d="M32.8756 36.31C37.0308 36.31 40.405 32.9308 40.405 28.7806C40.405 24.6305 37.0258 21.2513 32.8756 21.2513C28.7255 21.2513 25.3463 24.6305 25.3463 28.7806C25.3463 32.9308 28.7255 36.31 32.8756 36.31ZM32.8756 25.001C34.9582 25.001 36.6503 26.6931 36.6503 28.7756C36.6503 30.8582 34.9582 32.5503 32.8756 32.5503C30.7931 32.5503 29.101 30.8582 29.101 28.7756C29.101 26.6931 30.7931 25.001 32.8756 25.001Z" fill="white"/>
<path d="M54.5025 43.8493C58.6576 43.8493 62.0318 40.4701 62.0318 36.32C62.0318 32.1698 58.6526 28.7906 54.5025 28.7906C50.3523 28.7906 46.9731 32.1698 46.9731 36.32C46.9731 40.4701 50.3523 43.8493 54.5025 43.8493ZM54.5025 32.5403C56.585 32.5403 58.2771 34.2324 58.2771 36.315C58.2771 38.3975 56.585 40.0896 54.5025 40.0896C52.4199 40.0896 50.7278 38.3975 50.7278 36.315C50.7278 34.2324 52.4199 32.5403 54.5025 32.5403Z" fill="white"/>
</g>
<defs>
<clipPath id="clip0_44_2">
<rect width="109" height="109" fill="white"/>
</clipPath>
</defs>
</svg>
