<svg xmlns="http://www.w3.org/2000/svg" width="106" height="106" viewBox="0 0 106 106" fill="none">
  <g clip-path="url(#clip0_7_68)">
    <path d="M53.0024 106.005C82.2749 106.005 106.005 82.2749 106.005 53.0024C106.005 23.73 82.2749 0 53.0024 0C23.73 0 0 23.73 0 53.0024C0 82.2749 23.73 106.005 53.0024 106.005Z" fill="#3AAB9B"/>
    <path d="M86.39 68.041H76.4925C72.8412 68.041 69.2922 69.7157 66.7508 72.6368C63.2407 76.6678 58.567 78.8976 53.5964 78.917C48.6306 78.9268 43.9521 76.7457 40.4225 72.7487L40.3835 72.7001C37.8471 69.8326 34.3223 68.187 30.71 68.187H19.7268C18.9187 68.187 18.2663 68.8394 18.2663 69.6476C18.2663 70.4557 18.9187 71.1081 19.7268 71.1081H30.71C33.5239 71.1081 36.1821 72.3593 38.1927 74.6377L38.2317 74.6864C42.3114 79.3016 47.7446 81.8429 53.5331 81.8429H53.6061C59.4336 81.8235 64.8814 79.2383 68.9514 74.5647C70.9669 72.2473 73.6445 70.9718 76.4925 70.9718H86.39C87.1982 70.9718 87.8506 70.3194 87.8506 69.5112C87.8506 68.7031 87.1982 68.0507 86.39 68.0507V68.041Z" fill="white"/>
    <path d="M52.2478 45.1643C51.7659 44.5168 50.8506 44.3805 50.2031 44.8624C49.5556 45.3444 49.4193 46.2597 49.9013 46.9072L51.2644 48.7426C51.5517 49.1272 51.9898 49.3317 52.4377 49.3317C52.7395 49.3317 53.0463 49.2391 53.3092 49.0444C53.9567 48.5624 54.093 47.6472 53.611 46.9997L52.2478 45.1643Z" fill="white"/>
    <path d="M57.3402 63.2407C57.5691 63.3722 57.8222 63.4355 58.0705 63.4355C58.5768 63.4355 59.0685 63.1726 59.3363 62.7052L60.3002 61.0353C60.7043 60.3391 60.4658 59.4434 59.7647 59.0393C59.0685 58.6352 58.1727 58.8738 57.7687 59.5748L56.8047 61.2447C56.4006 61.9409 56.6392 62.8366 57.3402 63.2407Z" fill="white"/>
    <path d="M63.3283 71.0156C63.5182 71.0156 63.7129 70.9766 63.8979 70.8987C64.6379 70.5823 64.9835 69.7255 64.6671 68.9806L63.9125 67.2085C63.596 66.4685 62.7392 66.1228 61.9943 66.4393C61.2495 66.7557 60.9087 67.6126 61.2251 68.3574L61.9797 70.1295C62.2183 70.6845 62.7587 71.0205 63.3234 71.0205L63.3283 71.0156Z" fill="white"/>
    <path d="M46.5567 62.9681C46.7952 63.5231 47.3356 63.859 47.9003 63.859C48.0902 63.859 48.2849 63.8201 48.4699 63.7422C49.2099 63.4257 49.5556 62.5689 49.2392 61.824L48.4846 60.0519C48.1681 59.3119 47.3113 58.9662 46.5664 59.2827C45.8264 59.5991 45.4807 60.456 45.7972 61.2009L46.5518 62.973L46.5567 62.9681Z" fill="white"/>
    <path d="M52.535 64.599L50.9479 65.6895C50.2858 66.1472 50.1154 67.0576 50.573 67.7197C50.8554 68.1286 51.313 68.3526 51.7755 68.3526C52.0628 68.3526 52.35 68.2698 52.6032 68.0945L54.1903 67.004C54.8524 66.5464 55.0228 65.636 54.5651 64.9739C54.1075 64.3118 53.1971 64.1414 52.535 64.599Z" fill="white"/>
    <path d="M60.6313 48.0269C59.9643 47.5742 59.0539 47.7446 58.6011 48.4115L57.5155 50.0035C57.0627 50.6705 57.2331 51.5809 57.9001 52.0336C58.1532 52.204 58.4356 52.2868 58.7228 52.2868C59.1902 52.2868 59.6478 52.0628 59.9302 51.649L61.0159 50.0571C61.4686 49.3901 61.2982 48.4797 60.6313 48.0269Z" fill="white"/>
    <path d="M44.3658 69.3457L44.0542 71.2444C43.9228 72.0379 44.4632 72.7925 45.2567 72.924C45.3395 72.9386 45.4174 72.9435 45.4953 72.9435C46.1963 72.9435 46.8146 72.4371 46.9363 71.7215L47.2479 69.8228C47.3794 69.0293 46.839 68.2747 46.0454 68.1432C45.2519 68.0118 44.4973 68.5522 44.3658 69.3457Z" fill="white"/>
    <path d="M54.0783 73.591C53.2848 73.4401 52.5204 73.961 52.3695 74.7545C52.2186 75.5481 52.7395 76.3124 53.5331 76.4633L55.4269 76.8236C55.5194 76.8431 55.6119 76.848 55.6995 76.848C56.386 76.848 56.9994 76.3611 57.1308 75.6601C57.2818 74.8665 56.7608 74.1022 55.9673 73.9512L54.0735 73.591H54.0783Z" fill="white"/>
    <path d="M29.488 76.3514C30.1745 76.3514 30.7879 75.8645 30.9193 75.1635C31.0703 74.3699 30.5493 73.6056 29.7558 73.4546L27.862 73.0944C27.0684 72.9435 26.3041 73.4644 26.1532 74.2579C26.0022 75.0515 26.5232 75.8158 27.3167 75.9667L29.2105 76.327C29.303 76.3465 29.3955 76.3514 29.4832 76.3514H29.488Z" fill="white"/>
    <path d="M31.6934 79.102L29.7996 79.4428C29.006 79.584 28.4802 80.3435 28.6214 81.137C28.748 81.8429 29.3663 82.3395 30.0576 82.3395C30.1452 82.3395 30.2329 82.3298 30.3205 82.3152L32.2143 81.9744C33.0079 81.8332 33.5337 81.0737 33.3925 80.2802C33.2513 79.4866 32.4918 78.9608 31.6983 79.102H31.6934Z" fill="white"/>
    <path d="M75.4361 74.1557L73.5423 74.4965C72.7487 74.6377 72.2229 75.3972 72.3641 76.1907C72.4907 76.8966 73.109 77.3932 73.8003 77.3932C73.8879 77.3932 73.9755 77.3835 74.0632 77.3689L75.957 77.0281C76.7505 76.8869 77.2763 76.1274 77.1351 75.3339C76.994 74.5403 76.2345 74.0097 75.4409 74.1557H75.4361Z" fill="white"/>
    <path d="M71.9113 81.6239L70.3486 80.4944C69.6962 80.0221 68.781 80.1682 68.3087 80.8206C67.8365 81.4729 67.9825 82.3882 68.6349 82.8604L70.1977 83.9899C70.4557 84.1749 70.7575 84.2674 71.0545 84.2674C71.5073 84.2674 71.9552 84.0581 72.2375 83.6637C72.7098 83.0114 72.5637 82.0961 71.9113 81.6239Z" fill="white"/>
    <path d="M43.5333 83.6199L41.9706 82.4904C41.3182 82.0182 40.403 82.1643 39.9307 82.8166C39.4585 83.469 39.6045 84.3843 40.2569 84.8565L41.8197 85.986C42.0777 86.171 42.3795 86.2635 42.6765 86.2635C43.1293 86.2635 43.5772 86.0541 43.8595 85.6598C44.3318 85.0074 44.1857 84.0922 43.5333 83.6199Z" fill="white"/>
    <path d="M89.5497 55.4123H71.444V52.6909V30.0333H81.7164C82.5245 30.0333 83.1769 29.3809 83.1769 28.5727C83.1769 27.7646 82.5245 27.1122 81.7164 27.1122H69.9835C69.1753 27.1122 68.523 27.7646 68.523 28.5727V29.5172C67.9144 29.2835 67.2767 28.8015 66.0693 27.8327C62.379 24.8046 58.1922 22.2779 53.6305 20.3256C53.4552 20.2477 47.7397 17.7162 47.7397 17.7162C45.4564 16.7084 42.8323 17.5945 41.6298 19.7804C40.403 22.0198 41.1089 24.5806 43.3922 26.1531C43.436 26.1823 43.4847 26.2116 43.5334 26.2408L46.8634 28.0226L28.9087 28.3877C26.3528 28.3877 24.2739 30.4665 24.2739 33.0225C24.2739 33.6602 24.4054 34.2688 24.6391 34.8238C22.5067 35.2425 20.8953 37.1217 20.8953 39.3757C20.8953 41.6298 22.5067 43.509 24.6391 43.9277C24.4054 44.4827 24.2739 45.0913 24.2739 45.729C24.2739 48.2849 26.3528 50.3638 28.9087 50.3638H29.8483C29.6341 50.8944 29.5221 51.4738 29.5221 52.0774C29.5221 54.6334 31.6009 56.7122 34.1568 56.7122H57.384C61.2057 56.7122 64.9447 56.0695 68.523 54.8135V56.8777C68.523 57.6859 69.1753 58.3382 69.9835 58.3382H89.5497C90.3578 58.3382 91.0102 57.6859 91.0102 56.8777C91.0102 56.0695 90.3578 55.4172 89.5497 55.4172V55.4123ZM57.384 53.7863H34.1568C33.2124 53.7863 32.4431 53.017 32.4431 52.0726C32.4431 51.1281 33.2124 50.3589 34.1568 50.3589H44.585C45.3931 50.3589 46.0455 49.7065 46.0455 48.8984C46.0455 48.0902 45.3931 47.4378 44.585 47.4378H28.9087C27.9642 47.4378 27.195 46.6686 27.195 45.7242C27.195 44.7797 27.9642 44.0105 28.9087 44.0105H44.585C45.3931 44.0105 46.0455 43.3581 46.0455 42.55C46.0455 41.7418 45.3931 41.0894 44.585 41.0894H25.53C24.5855 41.0894 23.8163 40.3202 23.8163 39.3757C23.8163 38.4313 24.5855 37.6621 25.53 37.6621H44.585C45.3931 37.6621 46.0455 37.0097 46.0455 36.2015C46.0455 35.3934 45.3931 34.741 44.585 34.741H28.9087C27.9642 34.741 27.195 33.9718 27.195 33.0273C27.195 32.0829 27.9642 31.3137 28.9379 31.3137L50.9967 30.8658C51.503 35.1889 53.0365 38.884 55.7969 42.438C56.0842 42.808 56.5175 43.0027 56.9507 43.0027C57.2623 43.0027 57.5788 42.9005 57.8465 42.696C58.4843 42.1994 58.5963 41.2842 58.1046 40.6464C55.5194 37.3164 54.2001 34.001 53.8301 29.8969C53.7717 28.9233 53.2021 28.0664 52.3258 27.6429L44.9842 23.7141C43.9716 22.9887 43.6892 22.0977 44.1858 21.1922C44.6531 20.3451 45.6706 19.9995 46.5518 20.3938C48.7329 21.3626 52.4085 22.9838 52.4718 23.013C56.7852 24.8581 60.7384 27.2388 64.2242 30.1063C65.9427 31.4792 66.9797 32.2581 68.5181 32.5356V51.7026C64.9544 53.0852 61.2155 53.796 57.3792 53.796L57.384 53.7863Z" fill="white"/>
  </g>
  <defs>
    <clipPath id="clip0_7_68">
      <rect width="106" height="106" fill="white"/>
    </clipPath>
  </defs>
</svg>
