<svg xmlns="http://www.w3.org/2000/svg" width="107" height="107" viewBox="0 0 107 107" fill="none">
  <g clip-path="url(#clip0_7_237)">
    <path d="M53.5025 107.005C83.0511 107.005 107.005 83.0511 107.005 53.5025C107.005 23.9539 83.0511 0 53.5025 0C23.9539 0 0 23.9539 0 53.5025C0 83.0511 23.9539 107.005 53.5025 107.005Z" fill="#5B2FA3"/>
    <path d="M78.4624 72.2409H55.1586V66.6926C55.1832 66.5746 55.2274 66.4665 55.2274 66.3387V63.223C55.2274 62.7463 55.1881 62.2844 55.1586 61.8175V54.1069H55.9842C65.7245 54.1069 73.6464 46.185 73.6464 36.4448V33.7222C73.6464 32.6755 72.7962 31.8253 71.7494 31.8253H69.0269C63.4 31.8253 58.3923 34.479 55.1537 38.5923V34.3414C55.1537 26.5866 48.8437 20.2766 41.0889 20.2766H38.9904C37.9437 20.2766 37.0935 21.1218 37.0935 22.1735V24.2719C37.0935 32.0268 43.4035 38.3368 51.1583 38.3368H51.3647V51.4827C47.733 46.5241 41.8899 43.2855 35.285 43.2855H32.1693C31.1226 43.2855 30.2724 44.1308 30.2724 45.1825V48.2982C30.2724 59.2916 39.2165 68.2406 50.2148 68.2406H51.3598V72.2458H28.5278C27.481 72.2458 26.6309 73.091 26.6309 74.1427C26.6309 75.1944 27.481 76.0396 28.5278 76.0396H78.4526C79.4994 76.0396 80.3495 75.1944 80.3495 74.1427C80.3495 73.091 79.4994 72.2458 78.4526 72.2458L78.4624 72.2409ZM40.8874 24.2719V24.0655H41.0938C46.76 24.0655 51.3697 28.6752 51.3697 34.3414V34.5478H51.1633C45.497 34.5478 40.8874 29.9382 40.8874 24.2719ZM69.0318 35.6192H69.8574V36.4448C69.8574 44.0964 63.6359 50.318 55.9842 50.318H55.1586V49.4924C55.1586 41.8407 61.3802 35.6192 69.0318 35.6192ZM50.2246 64.4467C41.3198 64.4467 34.0712 57.203 34.0712 48.2982V47.0794H35.2899C43.718 47.0794 50.6522 53.5762 51.3697 61.8224V64.4467H50.2246Z" fill="white"/>
    <path d="M35.29 78.4821H34.8379C33.7911 78.4821 32.9409 79.3273 32.9409 80.379C32.9409 81.4307 33.7911 82.2759 34.8379 82.2759H35.29C36.3367 82.2759 37.1869 81.4307 37.1869 80.379C37.1869 79.3273 36.3367 78.4821 35.29 78.4821Z" fill="white"/>
    <path d="M53.8858 78.4821H53.4337C52.3869 78.4821 51.5367 79.3273 51.5367 80.379C51.5367 81.4307 52.3869 82.2759 53.4337 82.2759H53.8858C54.9326 82.2759 55.7827 81.4307 55.7827 80.379C55.7827 79.3273 54.9326 78.4821 53.8858 78.4821Z" fill="white"/>
    <path d="M72.4816 78.4821H72.0295C70.9828 78.4821 70.1326 79.3273 70.1326 80.379C70.1326 81.4307 70.9828 82.2759 72.0295 82.2759H72.4816C73.5284 82.2759 74.3786 81.4307 74.3786 80.379C74.3786 79.3273 73.5284 78.4821 72.4816 78.4821Z" fill="white"/>
    <path d="M45.1825 82.9344H44.7795C43.7328 82.9344 42.8826 83.7797 42.8826 84.8314C42.8826 85.8831 43.7328 86.7283 44.7795 86.7283H45.1825C46.2292 86.7283 47.0794 85.8831 47.0794 84.8314C47.0794 83.7797 46.2292 82.9344 45.1825 82.9344Z" fill="white"/>
    <path d="M61.7143 82.9344H61.3162C60.2695 82.9344 59.4193 83.7797 59.4193 84.8314C59.4193 85.8831 60.2695 86.7283 61.3162 86.7283H61.7143C62.7611 86.7283 63.6112 85.8831 63.6112 84.8314C63.6112 83.7797 62.7611 82.9344 61.7143 82.9344Z" fill="white"/>
  </g>
  <defs>
    <clipPath id="clip0_7_237">
      <rect width="107" height="107" fill="white"/>
    </clipPath>
  </defs>
</svg>
