<svg xmlns="http://www.w3.org/2000/svg" width="106" height="106" viewBox="0 0 106 106" fill="none">
  <g clip-path="url(#clip0_7_46)">
    <path d="M53.0024 106.005C82.2749 106.005 106.005 82.2749 106.005 53.0024C106.005 23.73 82.2749 0 53.0024 0C23.73 0 0 23.73 0 53.0024C0 82.2749 23.73 106.005 53.0024 106.005Z" fill="#FF68FF"/>
    <path d="M53.0024 35.6514C43.1974 35.6514 35.2181 43.6259 35.2181 53.4309C35.2181 60.9477 37.7302 63.8834 40.3932 66.9943C41.0261 67.7294 41.6785 68.4937 42.3211 69.3603C43.7962 71.3466 44.3902 74.9006 44.5411 76.5218C44.5265 76.6191 44.4827 76.7068 44.4827 76.809V80.8644C44.4827 85.0025 47.8467 88.3666 51.9849 88.3666H54.015C58.1532 88.3666 61.5173 85.0025 61.5173 80.8644V76.809C61.5173 76.7068 61.4734 76.6191 61.4588 76.5218C61.6098 74.9006 62.2037 71.3466 63.6788 69.3603C64.3215 68.4937 64.9787 67.7294 65.6067 66.9943C68.2697 63.8834 70.7819 60.9477 70.7819 53.4309C70.7819 43.6259 62.8074 35.6514 53.0024 35.6514ZM57.7637 80.8546C57.7637 82.9237 56.0841 84.6033 54.015 84.6033H51.9849C49.9158 84.6033 48.2362 82.9237 48.2362 80.8546V78.6785H57.7637V80.8546ZM62.7538 64.5503C62.0723 65.3487 61.3615 66.1764 60.6653 67.116C58.9175 69.4723 58.1775 72.8704 57.8757 74.9249H48.1291C47.8273 72.8704 47.0873 69.4723 45.3395 67.116C44.6385 66.1764 43.9325 65.3487 43.251 64.5503C40.7681 61.6536 38.9765 59.5602 38.9765 53.4309C38.9765 45.695 45.2714 39.405 53.0024 39.405C60.7334 39.405 67.0283 45.695 67.0283 53.4309C67.0283 59.5602 65.2367 61.6536 62.7538 64.5503Z" fill="white"/>
    <path d="M29.4588 50.8214H19.2692C18.2322 50.8214 17.39 51.6636 17.39 52.7006C17.39 53.7376 18.2322 54.5798 19.2692 54.5798H29.4588C30.4957 54.5798 31.338 53.7376 31.338 52.7006C31.338 51.6636 30.4957 50.8214 29.4588 50.8214Z" fill="white"/>
    <path d="M37.8714 37.3407C38.6065 36.6056 38.6065 35.4177 37.8714 34.6875L30.8657 27.6818C30.1306 26.9467 28.9427 26.9467 28.2124 27.6818C27.4773 28.4169 27.4773 29.6048 28.2124 30.3351L35.2181 37.3407C35.5832 37.7059 36.0652 37.8909 36.5471 37.8909C37.0291 37.8909 37.5062 37.7059 37.8762 37.3407H37.8714Z" fill="white"/>
    <path d="M53.5477 31.5863C54.5846 31.5863 55.4269 30.7441 55.4269 29.7071V19.5175C55.4269 18.4805 54.5846 17.6383 53.5477 17.6383C52.5107 17.6383 51.6685 18.4805 51.6685 19.5175V29.7071C51.6685 30.7441 52.5107 31.5863 53.5477 31.5863Z" fill="white"/>
    <path d="M78.5665 28.4608C77.8313 27.7256 76.6434 27.7256 75.9132 28.4608L68.8345 35.5394C68.0994 36.2746 68.0994 37.4625 68.8345 38.1927C69.1996 38.5578 69.6816 38.7429 70.1636 38.7429C70.6455 38.7429 71.1226 38.5578 71.4926 38.1927L78.5713 31.114C79.3065 30.3789 79.3065 29.191 78.5713 28.4608H78.5665Z" fill="white"/>
    <path d="M86.7308 51.9217H76.5412C75.5042 51.9217 74.662 52.7639 74.662 53.8009C74.662 54.8378 75.5042 55.6801 76.5412 55.6801H86.7308C87.7678 55.6801 88.61 54.8378 88.61 53.8009C88.61 52.7639 87.7678 51.9217 86.7308 51.9217Z" fill="white"/>
  </g>
  <defs>
    <clipPath id="clip0_7_46">
      <rect width="106" height="106" fill="white"/>
    </clipPath>
  </defs>
</svg>
