<svg xmlns="http://www.w3.org/2000/svg" width="103" height="103" viewBox="0 0 103 103" fill="none">
  <g clip-path="url(#clip0_7_207)">
    <path d="M51.5024 103.005C79.9463 103.005 103.005 79.9463 103.005 51.5024C103.005 23.0584 79.9463 0 51.5024 0C23.0584 0 0 23.0584 0 51.5024C0 79.9463 23.0584 103.005 51.5024 103.005Z" fill="#75BB23"/>
    <path d="M84.6783 46.6014H52.1646C52.2545 45.8824 52.368 45.3242 52.439 45.0025C52.8695 43.588 53.6359 42.3013 54.5962 41.1565C56.1242 42.0033 58.4706 42.9872 61.2569 42.9872C63.1681 42.9872 65.2779 42.5236 67.4351 41.2274C74.7061 36.8705 73.3247 23.8897 73.2632 23.3362C73.197 22.7496 72.8233 22.2481 72.284 22.0163C71.7447 21.7798 71.1203 21.8555 70.6519 22.2056C69.0483 23.4024 66.8296 23.7856 64.4832 24.1924C61.3421 24.7365 57.7846 25.3562 54.9888 28.0952C50.788 32.2109 51.895 37.8119 52.1694 38.9378C51.5355 39.6805 50.9678 40.4847 50.4758 41.3362C49.9602 40.3475 49.3688 39.4345 48.7255 38.6019C49.0661 37.3625 50.1068 32.4427 46.5683 28.5919C44.132 25.9428 40.9294 25.2237 38.1052 24.5898C36.0332 24.1262 34.0747 23.6863 32.7123 22.5509C32.2581 22.1725 31.6384 22.0684 31.0802 22.2765C30.5267 22.4847 30.1294 22.9767 30.0395 23.5585C29.9591 24.06 28.1898 35.9055 34.6235 40.2293C36.7286 41.6437 38.8195 42.1357 40.6976 42.1357C42.9588 42.1357 44.8984 41.4309 46.2324 40.7733C47.4482 42.3864 48.4416 44.3023 48.8437 46.5447C48.8437 46.5589 48.8532 46.5683 48.8579 46.5778C48.8579 46.5825 48.8579 46.592 48.8579 46.5967H18.3217C17.4134 46.5967 16.6802 47.3299 16.6802 48.2382C16.6802 49.1465 17.4134 49.8798 18.3217 49.8798H48.7586C48.768 50.0643 48.7822 50.2535 48.7964 50.4427C48.7964 50.4474 48.787 50.4522 48.7822 50.4569C48.7207 50.5373 42.7743 58.2955 33.8949 57.8792C33.0245 57.8745 32.225 58.5463 32.1872 59.4498C32.1493 60.3534 32.8495 61.1197 33.7578 61.1576C34.0227 61.167 34.2828 61.1718 34.543 61.1718C36.7901 61.1718 38.8384 60.746 40.6976 60.1026C40.6314 61.0914 40.3854 62.2977 39.6616 63.2107C38.9804 64.0764 37.9585 64.5494 36.5394 64.6582C35.6358 64.7292 34.9593 65.5192 35.0303 66.4228C35.0965 67.2837 35.8156 67.9366 36.6671 67.9366C36.7097 67.9366 36.7522 67.9366 36.7948 67.9366C39.1554 67.7521 40.9909 66.8391 42.254 65.2259C43.9901 63.0073 44.0611 60.0885 43.9712 58.6503C46.4358 57.2974 48.3517 55.67 49.6196 54.407C50.1021 55.7883 50.8069 57.1602 51.8571 58.4091C52.0795 58.674 52.3302 58.9105 52.5762 59.1518C52.6282 60.0222 52.5857 62.6193 50.419 65.0178C47.311 68.4617 41.024 70.0795 32.225 69.7011C31.3309 69.6443 30.5551 70.3634 30.5125 71.2717C30.47 72.1799 31.1748 72.9416 32.0831 72.9842C32.9914 73.022 33.876 73.0457 34.7323 73.0457C37.5943 73.0457 40.1536 72.8044 42.4574 72.3692C42.2256 74.1053 41.4971 76.5794 39.2831 77.3884C38.4316 77.7006 37.9917 78.642 38.3039 79.4935C38.5451 80.1605 39.1743 80.5721 39.8461 80.5721C40.0353 80.5721 40.2245 80.539 40.409 80.4727C44.941 78.817 45.7168 73.8215 45.8303 71.5366C48.8295 70.5526 51.1996 69.0908 52.9215 67.156C53.0351 67.0283 53.1108 66.8958 53.2148 66.7681C54.459 70.2073 55.6984 76.5652 50.2629 81.0452C49.5628 81.6223 49.4634 82.6583 50.0406 83.3584C50.367 83.7511 50.8353 83.9545 51.3084 83.9545C51.6774 83.9545 52.0464 83.8315 52.3539 83.5808C59.9181 77.3411 57.6522 67.7473 55.2348 63.1586C55.4382 62.5578 55.5943 61.9854 55.689 61.4556C56.9047 62.0942 58.2719 62.5815 59.7809 62.9316C59.71 63.5655 59.535 66.2761 61.484 68.5657C63.2532 70.6425 66.1578 71.6974 70.1079 71.6974C71.0162 71.6974 71.7494 70.9642 71.7494 70.0559C71.7494 69.1476 71.0162 68.4144 70.1079 68.4144C67.227 68.4144 65.1171 67.7379 64.0054 66.4653C62.9836 65.2921 62.993 63.8824 63.0262 63.433C63.8919 63.5087 64.7765 63.556 65.7132 63.556C67.0472 63.556 68.4569 63.4803 69.9423 63.3242C70.8459 63.2296 71.4987 62.4254 71.4041 61.5218C71.3095 60.6183 70.51 59.9513 69.6017 60.0601C62.2456 60.8217 57.1223 59.5634 54.3833 56.3134C52.7607 54.388 52.1836 51.9943 52.0558 49.875H84.683C85.5913 49.875 86.3245 49.1418 86.3245 48.2335C86.3245 47.3252 85.5913 46.592 84.683 46.592L84.6783 46.6014ZM36.4542 37.5092C33.3982 35.4561 32.9157 30.1294 33.0576 26.5436C34.4437 27.1349 35.9291 27.466 37.3814 27.7972C39.9643 28.379 42.4053 28.9278 44.1462 30.82C45.5417 32.3386 45.8634 34.141 45.8492 35.5459C42.8074 32.8637 39.7988 31.5344 39.567 31.435C38.7296 31.0802 37.7693 31.4681 37.4145 32.3007C37.0597 33.1333 37.4429 34.0984 38.2755 34.4532C38.3275 34.4768 41.1565 35.721 43.9002 38.2235C42.0411 38.9331 39.2453 39.3872 36.4542 37.5092ZM65.0414 27.4329C66.7539 27.1349 68.4995 26.8321 70.1268 26.1982C70.1458 30.1672 69.3699 36.2461 65.7463 38.4174C62.3781 40.4327 59.1376 39.6805 57.0703 38.7486C60.3439 36.09 64.0243 34.6329 64.0858 34.6093C64.9326 34.2829 65.3536 33.332 65.0272 32.49C64.7008 31.6432 63.7547 31.2222 62.9079 31.5486C62.6288 31.6526 58.7402 33.1854 55.1118 36.1136C55.0882 34.4863 55.4524 32.244 57.2784 30.4558C59.3457 28.4311 62.1084 27.9486 65.0367 27.4424L65.0414 27.4329Z" fill="white"/>
  </g>
  <defs>
    <clipPath id="clip0_7_207">
      <rect width="103" height="103" fill="white"/>
    </clipPath>
  </defs>
</svg>
