<svg xmlns="http://www.w3.org/2000/svg" width="106" height="106" viewBox="0 0 106 106" fill="none">
  <g clip-path="url(#clip0_7_96)">
    <path d="M53.0024 106.005C82.2749 106.005 106.005 82.2749 106.005 53.0024C106.005 23.73 82.2749 0 53.0024 0C23.73 0 0 23.73 0 53.0024C0 82.2749 23.73 106.005 53.0024 106.005Z" fill="#FFD208"/>
    <path d="M53.314 72.9532H52.686C51.649 72.9532 50.8068 73.7906 50.8068 74.8324C50.8068 75.8743 51.649 76.7116 52.686 76.7116H53.314C54.351 76.7116 55.1932 75.8743 55.1932 74.8324C55.1932 73.7906 54.351 72.9532 53.314 72.9532Z" fill="white"/>
    <path d="M40.325 77.0573H39.697C38.66 77.0573 37.8177 77.8946 37.8177 78.9365C37.8177 79.9783 38.66 80.8157 39.697 80.8157H40.325C41.362 80.8157 42.2042 79.9783 42.2042 78.9365C42.2042 77.8946 41.362 77.0573 40.325 77.0573Z" fill="white"/>
    <path d="M66.3078 77.0573H65.6797C64.6428 77.0573 63.8005 77.8946 63.8005 78.9365C63.8005 79.9783 64.6428 80.8157 65.6797 80.8157H66.3078C67.3447 80.8157 68.187 79.9783 68.187 78.9365C68.187 77.8946 67.3447 77.0573 66.3078 77.0573Z" fill="white"/>
    <path d="M87.7872 48.3726C85.6548 46.6297 82.8506 45.6706 79.8906 45.6706C76.9306 45.6706 74.1118 46.6297 71.9746 48.3726C69.0535 50.763 63.8443 50.7727 60.9136 48.3726C58.7812 46.6297 55.9721 45.6706 53.0024 45.6706C50.0327 45.6706 47.2236 46.6297 45.0863 48.3726C42.1556 50.7727 36.9464 50.763 34.0253 48.3726C31.8929 46.6297 29.0839 45.6706 26.1141 45.6706C23.1444 45.6706 20.3499 46.6297 18.2127 48.3726C17.4094 49.0298 17.2926 50.2128 17.9449 51.0161C18.6022 51.8194 19.7852 51.9362 20.5885 51.2839C23.5241 48.8837 28.7236 48.8935 31.6495 51.2839C33.7819 53.0268 36.591 53.9858 39.5656 53.9858C42.5402 53.9858 45.3346 53.0268 47.4621 51.2839C50.3491 48.9227 55.6508 48.9227 58.5378 51.2839C60.6701 53.0268 63.4743 53.9858 66.4392 53.9858C69.4041 53.9858 72.2229 53.0268 74.3504 51.2839C77.2763 48.8935 82.4758 48.8837 85.4114 51.2839C86.2147 51.9362 87.3977 51.8243 88.055 51.0161C88.7122 50.2128 88.5905 49.0298 87.7872 48.3726Z" fill="white"/>
    <path d="M27.3361 56.7316C28.3731 56.7316 29.2153 55.8943 29.2153 54.8524C29.2153 53.8106 28.3731 52.9732 27.3361 52.9732H26.7081C25.6711 52.9732 24.8289 53.8106 24.8289 54.8524C24.8289 55.8943 25.6711 56.7316 26.7081 56.7316H27.3361Z" fill="white"/>
    <path d="M53.314 56.7316C54.351 56.7316 55.1932 55.8943 55.1932 54.8524C55.1932 53.8106 54.351 52.9732 53.314 52.9732H52.686C51.649 52.9732 50.8068 53.8106 50.8068 54.8524C50.8068 55.8943 51.649 56.7316 52.686 56.7316H53.314Z" fill="white"/>
    <path d="M79.2967 56.7316C80.3336 56.7316 81.1759 55.8943 81.1759 54.8524C81.1759 53.8106 80.3336 52.9732 79.2967 52.9732H78.6686C77.6317 52.9732 76.7894 53.8106 76.7894 54.8524C76.7894 55.8943 77.6317 56.7316 78.6686 56.7316H79.2967Z" fill="white"/>
    <path d="M40.325 63.8931C41.362 63.8931 42.2042 63.0557 42.2042 62.0139C42.2042 60.972 41.362 60.1347 40.325 60.1347H39.697C38.66 60.1347 37.8177 60.972 37.8177 62.0139C37.8177 63.0557 38.66 63.8931 39.697 63.8931H40.325Z" fill="white"/>
    <path d="M65.6749 63.7519H66.3029C67.3399 63.7519 68.1821 62.9145 68.1821 61.8727C68.1821 60.8308 67.3399 59.9935 66.3029 59.9935H65.6749C64.6379 59.9935 63.7957 60.8308 63.7957 61.8727C63.7957 62.9145 64.6379 63.7519 65.6749 63.7519Z" fill="white"/>
    <path d="M26.7081 35.2376C25.6711 35.2376 24.8289 36.0749 24.8289 37.1168C24.8289 38.1586 25.6711 38.996 26.7081 38.996H27.3361C28.3731 38.996 29.2153 38.1586 29.2153 37.1168C29.2153 36.0749 28.3731 35.2376 27.3361 35.2376H26.7081Z" fill="white"/>
    <path d="M52.686 35.2376C51.649 35.2376 50.8068 36.0749 50.8068 37.1168C50.8068 38.1586 51.649 38.996 52.686 38.996H53.314C54.351 38.996 55.1932 38.1586 55.1932 37.1168C55.1932 36.0749 54.351 35.2376 53.314 35.2376H52.686Z" fill="white"/>
    <path d="M79.2967 35.2376H78.6686C77.6317 35.2376 76.7894 36.0749 76.7894 37.1168C76.7894 38.1586 77.6317 38.996 78.6686 38.996H79.2967C80.3336 38.996 81.1759 38.1586 81.1759 37.1168C81.1759 36.0749 80.3336 35.2376 79.2967 35.2376Z" fill="white"/>
    <path d="M40.325 41.8148H39.697C38.66 41.8148 37.8177 42.6522 37.8177 43.694C37.8177 44.7359 38.66 45.5732 39.697 45.5732H40.325C41.362 45.5732 42.2042 44.7359 42.2042 43.694C42.2042 42.6522 41.362 41.8148 40.325 41.8148Z" fill="white"/>
    <path d="M65.6749 41.8148C64.6379 41.8148 63.7957 42.6522 63.7957 43.694C63.7957 44.7359 64.6379 45.5732 65.6749 45.5732H66.3029C67.3399 45.5732 68.1821 44.7359 68.1821 43.694C68.1821 42.6522 67.3399 41.8148 66.3029 41.8148H65.6749Z" fill="white"/>
    <path d="M75.3143 64.4724C72.6659 64.4724 70.1878 65.6165 68.333 67.7002C66.074 70.2366 62.2523 70.2464 59.9836 67.7002C58.1288 65.6214 55.6508 64.4724 53.0023 64.4724C50.3539 64.4724 47.8759 65.6165 46.0162 67.7002C43.7475 70.2464 39.9258 70.2317 37.6668 67.7002C35.812 65.6214 33.3291 64.4773 30.6855 64.4773C28.042 64.4773 25.5688 65.6214 23.7139 67.705C23.0226 68.4791 23.0908 69.667 23.8649 70.3535C24.6389 71.0448 25.8268 70.9766 26.5133 70.2025C28.782 67.6612 32.6037 67.671 34.8626 70.2025C36.7126 72.2814 39.1955 73.4303 41.8488 73.4303C44.5021 73.4303 46.9704 72.2862 48.8204 70.2074C51.0842 67.6661 54.9156 67.6661 57.1794 70.2074C59.0343 72.2862 61.5075 73.4352 64.151 73.4352C66.7946 73.4352 69.2823 72.2911 71.1323 70.2074C73.3913 67.6758 77.213 67.6612 79.4816 70.2074C80.173 70.9766 81.3609 71.0448 82.1301 70.3583C82.9041 69.667 82.9723 68.484 82.281 67.7099C80.4261 65.6311 77.9481 64.487 75.3094 64.487L75.3143 64.4724Z" fill="white"/>
    <path d="M25.9145 32.7304C28.3828 31.5765 33.0126 31.5814 35.4712 32.7304C38.9424 34.3613 44.7455 34.3661 48.2215 32.7304C50.685 31.5765 55.3294 31.5765 57.788 32.7304C59.526 33.5482 61.7898 33.9961 64.1559 33.9961C66.5219 33.9961 68.8003 33.5434 70.5335 32.7304C72.9921 31.5814 77.6219 31.5765 80.0902 32.7304C81.0249 33.1685 82.1447 32.7693 82.5877 31.8297C83.0259 30.8901 82.6266 29.7752 81.687 29.3322C78.2061 27.7013 72.4127 27.7061 68.9367 29.3322C66.483 30.4909 61.8482 30.4909 59.38 29.3322C55.9039 27.7013 50.1008 27.7013 46.6198 29.3322C44.1564 30.4909 39.5217 30.4909 37.0631 29.3322C33.5871 27.7013 27.7937 27.7013 24.3176 29.3322C23.378 29.7704 22.9739 30.8901 23.417 31.8297C23.86 32.7693 24.9749 33.1685 25.9145 32.7304Z" fill="white"/>
  </g>
  <defs>
    <clipPath id="clip0_7_96">
      <rect width="106" height="106" fill="white"/>
    </clipPath>
  </defs>
</svg>
