<svg xmlns="http://www.w3.org/2000/svg" width="107" height="107" viewBox="0 0 107 107" fill="none">
  <g clip-path="url(#clip0_7_224)">
    <path d="M53.5025 107.005C83.0511 107.005 107.005 83.0511 107.005 53.5025C107.005 23.9539 83.0511 0 53.5025 0C23.9539 0 0 23.9539 0 53.5025C0 83.0511 23.9539 107.005 53.5025 107.005Z" fill="#CC0100"/>
    <path d="M53.5024 37.4326C44.6418 37.4326 37.4325 44.6419 37.4325 53.5025C37.4325 62.363 44.6418 69.5724 53.5024 69.5724C62.363 69.5724 69.5723 62.363 69.5723 53.5025C69.5723 44.6419 62.363 37.4326 53.5024 37.4326ZM53.5024 65.7785C46.7304 65.7785 41.2215 60.2695 41.2215 53.4975C41.2215 46.7256 46.7304 41.2166 53.5024 41.2166C60.2744 41.2166 65.7833 46.7256 65.7833 53.4975C65.7833 60.2695 60.2744 65.7785 53.5024 65.7785Z" fill="white"/>
    <path d="M53.5024 33.4618C54.5492 33.4618 55.3993 32.6116 55.3993 31.5648V20.0505C55.3993 19.0038 54.5492 18.1536 53.5024 18.1536C52.4557 18.1536 51.6055 19.0038 51.6055 20.0505V31.5648C51.6055 32.6116 52.4557 33.4618 53.5024 33.4618Z" fill="white"/>
    <path d="M53.5024 73.5432C52.4557 73.5432 51.6055 74.3933 51.6055 75.4401V86.9495C51.6055 87.9962 52.4557 88.8464 53.5024 88.8464C54.5492 88.8464 55.3993 87.9962 55.3993 86.9495V75.4401C55.3993 74.3933 54.5492 73.5432 53.5024 73.5432Z" fill="white"/>
    <path d="M86.9494 51.6055H75.4351C74.3884 51.6055 73.5382 52.4557 73.5382 53.5025C73.5382 54.5492 74.3884 55.3994 75.4351 55.3994H86.9494C87.9962 55.3994 88.8464 54.5492 88.8464 53.5025C88.8464 52.4557 87.9962 51.6055 86.9494 51.6055Z" fill="white"/>
    <path d="M33.4617 53.5025C33.4617 52.4557 32.6115 51.6055 31.5648 51.6055H20.0554C19.0086 51.6055 18.1584 52.4557 18.1584 53.5025C18.1584 54.5492 19.0086 55.3994 20.0554 55.3994H31.5648C32.6115 55.3994 33.4617 54.5492 33.4617 53.5025Z" fill="white"/>
    <path d="M69.012 39.8848C69.4985 39.8848 69.9801 39.6981 70.3536 39.3295L78.4918 31.1913C79.2339 30.4493 79.2339 29.2502 78.4918 28.513C77.7497 27.771 76.5506 27.771 75.8135 28.513L67.6753 36.6512C66.9333 37.3933 66.9333 38.5923 67.6753 39.3295C68.0439 39.6981 68.5304 39.8848 69.0169 39.8848H69.012Z" fill="white"/>
    <path d="M36.6511 67.6705L28.513 75.8136C27.7709 76.5556 27.7709 77.7547 28.513 78.4919C28.8815 78.8605 29.3681 79.0472 29.8546 79.0472C30.3411 79.0472 30.8227 78.8605 31.1962 78.4919L39.3344 70.3488C40.0764 69.6068 40.0764 68.4077 39.3344 67.6705C38.5923 66.9284 37.3932 66.9284 36.656 67.6705H36.6511Z" fill="white"/>
    <path d="M70.3536 67.6705C69.6116 66.9284 68.4125 66.9284 67.6753 67.6705C66.9382 68.4126 66.9332 69.6117 67.6753 70.3488L75.8135 78.4919C76.182 78.8605 76.6686 79.0472 77.1551 79.0472C77.6416 79.0472 78.1232 78.8605 78.4967 78.4919C79.2388 77.7498 79.2388 76.5507 78.4967 75.8136L70.3585 67.6705H70.3536Z" fill="white"/>
    <path d="M36.6511 39.3295C37.0197 39.6981 37.5062 39.8848 37.9927 39.8848C38.4792 39.8848 38.9608 39.6981 39.3343 39.3295C40.0764 38.5874 40.0764 37.3883 39.3343 36.6512L31.1962 28.513C30.4541 27.771 29.255 27.771 28.5179 28.513C27.7758 29.2551 27.7758 30.4542 28.5179 31.1913L36.656 39.3295H36.6511Z" fill="white"/>
  </g>
  <defs>
    <clipPath id="clip0_7_224">
      <rect width="107" height="107" fill="white"/>
    </clipPath>
  </defs>
</svg>
