<svg xmlns="http://www.w3.org/2000/svg" width="109" height="109" viewBox="0 0 109 109" fill="none">
  <g clip-path="url(#clip0_7_220)">
    <path d="M54.5025 109.005C84.6034 109.005 109.005 84.6034 109.005 54.5025C109.005 24.4016 84.6034 0 54.5025 0C24.4016 0 0 24.4016 0 54.5025C0 84.6034 24.4016 109.005 54.5025 109.005Z" fill="#FE6A46"/>
    <path d="M86.6673 38.9682C86.4421 38.6028 80.9653 30.0122 70.4022 31.0785C66.4773 31.469 63.0981 33.6767 61.1357 37.126C59.4536 40.0796 59.0531 43.4989 60.0994 45.8868C60.1195 45.9469 60.1495 46.012 60.1695 46.0771C59.8441 46.5076 59.5237 46.9381 59.2334 47.3987C58.7127 48.2097 58.2672 49.0607 57.8617 49.9268C57.0757 47.8342 56.0494 45.8418 54.7728 43.9694C54.7028 43.8693 54.6227 43.7792 54.5526 43.6791C55.6489 41.0759 55.6039 37.5265 54.3523 34.1923C53.3511 31.534 50.7278 26.8182 44.3699 25.1461C31.7643 21.822 23.4741 31.1686 23.1236 31.5691C22.7732 31.9696 22.628 32.5103 22.7281 33.0309C22.8283 33.5515 23.1587 34.0021 23.6343 34.2474C25.7018 35.3237 27.419 37.5915 29.2312 39.9895C31.9996 43.6541 35.1435 47.8042 40.6904 49.6515C42.2173 50.1621 43.619 50.3774 44.8906 50.3774C48.415 50.3774 50.9431 48.7053 52.51 46.9381C53.9819 49.3261 55.0231 51.9193 55.6139 54.6827C50.3123 54.8279 45.2761 57.0406 41.5615 60.8253L37.7568 60.0744C35.9195 59.7089 34.0522 60.3097 32.8557 61.5863L22.638 70.9779C21.9322 71.6287 21.8871 72.7251 22.5329 73.4359C23.1837 74.1368 24.2801 74.1869 24.9859 73.5361L35.2937 64.0593C35.7543 63.5687 36.4251 63.3585 37.0859 63.4836L56.8804 67.3834C57.7816 67.5587 58.4274 68.3246 58.4524 69.2407C58.4674 69.7914 58.2572 70.3071 57.8617 70.6975C57.4662 71.083 56.9355 71.2632 56.3898 71.2432L44.2899 70.5273C43.3387 70.4873 42.5127 71.2032 42.4526 72.1594C42.3975 73.1155 43.1284 73.9366 44.0846 73.9966L56.1846 74.7125C56.2897 74.7175 56.3999 74.7225 56.505 74.7225C57.6614 74.7225 58.7828 74.332 59.709 73.6462C59.8141 73.6212 59.9192 73.6162 60.0193 73.5711L77.6261 65.3709C78.5723 64.9004 79.6987 65.2158 80.2544 66.1169C80.8351 67.063 80.5448 68.3096 79.6036 68.8903L61.2308 80.3094C60.4098 80.8201 59.4687 81.0904 58.5125 81.0904H58.4974L34.5928 80.9002H34.5778C33.6266 80.9002 32.8507 81.6711 32.8407 82.6273C32.8307 83.5885 33.6016 84.3695 34.5628 84.3795L58.4774 84.5697H58.5025C60.1195 84.5697 61.6964 84.1192 63.0631 83.2681L81.4359 71.844C83.999 70.252 84.795 66.8678 83.2131 64.2996C81.7062 61.8516 78.6374 60.9805 76.1143 62.2471L73.0204 63.6889C72.9654 63.5337 72.9153 63.3735 72.8152 63.2333C69.6763 58.8529 64.9504 55.9493 59.744 55.0131C60.2346 52.9506 61.0356 51.0232 62.162 49.271C62.172 49.256 62.182 49.246 62.187 49.231C63.5487 50.5977 65.5462 51.709 68.3647 51.709C68.9804 51.709 69.6312 51.654 70.3271 51.5388C75.0379 50.7629 78.0717 47.8442 80.75 45.2711C82.4521 43.634 84.0591 42.0921 85.7512 41.5264C86.2568 41.3562 86.6573 40.9707 86.8376 40.4651C87.0178 39.9645 86.9577 39.4088 86.6774 38.9582L86.6673 38.9682ZM41.7868 46.3524C37.2611 44.8455 34.5878 41.3112 31.9996 37.8919C30.4627 35.8594 28.9909 33.917 27.1937 32.4602C29.7819 30.2575 35.6491 26.4377 43.4839 28.5003C48.3299 29.7769 50.3373 33.3763 51.0983 35.4088C51.7841 37.2361 51.9443 38.9482 51.8042 40.355C47.4938 35.8544 41.8018 32.8657 35.5941 32.0196C34.6579 31.8895 33.7668 32.5553 33.6367 33.5065C33.5065 34.4577 34.1723 35.3337 35.1235 35.4639C41.1009 36.2799 46.5527 39.3437 50.4275 43.9845C49.4813 45.3812 46.9031 48.0545 41.7868 46.3574V46.3524ZM69.8916 65.1357L61.8917 68.8603C61.7014 66.4373 59.9643 64.4448 57.5513 63.9692L45.8217 61.6563C48.7554 59.4086 52.3548 58.137 56.0945 58.127H56.1545C61.5713 58.127 66.6876 60.7402 69.8916 65.1307V65.1357ZM78.337 42.773C75.909 45.1059 73.4009 47.5138 69.7514 48.1196C66.8678 48.5902 65.2558 47.5389 64.3697 46.4926C66.6425 44.1797 69.461 42.6528 72.4647 42.1972C73.4109 42.0521 74.0617 41.166 73.9216 40.2198C73.7814 39.2736 72.9003 38.6228 71.9441 38.763C68.6801 39.2586 65.6012 40.7555 63.013 43.0133C62.993 41.8268 63.3234 40.3199 64.1545 38.8531C64.9755 37.4063 66.9279 34.9232 70.7476 34.5428C76.7 33.932 80.6549 37.2211 82.5072 39.2686C81.0254 40.1948 79.7087 41.4613 78.337 42.778V42.773Z" fill="white"/>
  </g>
  <defs>
    <clipPath id="clip0_7_220">
      <rect width="109" height="109" fill="white"/>
    </clipPath>
  </defs>
</svg>
