<svg xmlns="http://www.w3.org/2000/svg" width="109" height="109" viewBox="0 0 109 109" fill="none">
  <g clip-path="url(#clip0_7_213)">
    <path d="M54.5025 109.005C84.6034 109.005 109.005 84.6034 109.005 54.5025C109.005 24.4016 84.6034 0 54.5025 0C24.4016 0 0 24.4016 0 54.5025C0 84.6034 24.4016 109.005 54.5025 109.005Z" fill="#4285F4"/>
    <path d="M44.0045 35.4289C42.0921 32.4802 40.2849 29.7018 38.9232 26.7331C38.6078 26.0473 37.922 25.6067 37.1711 25.6067C36.4201 25.6067 35.7343 26.0423 35.4189 26.7281C34.0572 29.6818 32.26 32.4502 30.3526 35.3838C26.4578 41.3813 22.4328 47.5789 22.4328 55.4136C22.4328 63.2483 29.046 70.1519 37.1711 70.1519C45.2961 70.1519 51.9093 63.5387 51.9093 55.4136C51.9093 47.2886 47.8893 41.4063 44.0045 35.4239V35.4289ZM37.1711 66.2921C31.1736 66.2921 26.2976 61.4161 26.2976 55.4136C26.2976 48.7203 29.842 43.2636 33.5916 37.4814C34.8031 35.6141 36.0447 33.7017 37.166 31.7293C38.2974 33.7168 39.544 35.6441 40.7655 37.5215C44.5101 43.2886 48.0445 48.7354 48.0445 55.4086C48.0445 61.4061 43.1635 66.2871 37.166 66.2871L37.1711 66.2921Z" fill="white"/>
    <path d="M60.5951 59.4286C60.2797 58.7428 59.5988 58.3072 58.8429 58.3022C58.092 58.3022 57.4061 58.7378 57.0907 59.4186C56.2297 61.2809 55.0782 63.0481 53.8617 64.9204C51.2835 68.8903 48.6152 72.9904 48.6152 78.2669C48.6152 83.9089 53.2009 88.4946 58.8429 88.4946C64.4849 88.4946 69.0455 83.9089 69.0455 78.2669C69.0455 73.0004 66.3923 68.9104 63.8291 64.9505C62.6076 63.0731 61.4611 61.2959 60.6001 59.4236L60.5951 59.4286ZM58.8429 84.6398C55.3336 84.6398 52.475 81.7863 52.475 78.272C52.475 74.1368 54.7178 70.6826 57.0957 67.028C57.6765 66.1319 58.2672 65.2208 58.8329 64.2896C59.4036 65.2308 59.9993 66.1519 60.5851 67.0531C62.948 70.7026 65.1807 74.1468 65.1807 78.2669C65.1807 81.7763 62.3372 84.6348 58.8379 84.6348L58.8429 84.6398Z" fill="white"/>
    <path d="M79.919 28.8557C78.3321 26.4077 76.8302 24.0898 75.6938 21.6268C75.3784 20.9409 74.6925 20.5054 73.9416 20.5054C73.1857 20.5054 72.5048 20.9459 72.1894 21.6318C71.058 24.1099 69.5512 26.4327 67.9542 28.9008C64.6952 33.927 61.326 39.1285 61.326 45.7316C61.326 52.6903 66.988 58.3523 73.9516 58.3523C80.9153 58.3523 86.5723 52.6903 86.5723 45.7316C86.5723 38.773 83.1931 33.897 79.924 28.8557H79.919ZM73.9416 54.4925C69.1106 54.4925 65.1758 50.5626 65.1758 45.7316C65.1758 40.2699 68.0944 35.7693 71.1832 30.9984C72.1144 29.5616 73.0655 28.0998 73.9416 26.5879C74.8127 28.0848 75.7539 29.5366 76.675 30.9533C79.7738 35.7343 82.7025 40.2449 82.7025 45.7266C82.7025 50.5576 78.7726 54.4875 73.9416 54.4875V54.4925Z" fill="white"/>
  </g>
  <defs>
    <clipPath id="clip0_7_213">
      <rect width="109" height="109" fill="white"/>
    </clipPath>
  </defs>
</svg>
