<svg width="547" height="176" viewBox="0 0 547 176" fill="none" xmlns="http://www.w3.org/2000/svg">
<g clip-path="url(#clip0_9_252)">
<path d="M114.84 59.1928V0H70.0944V59.1928L92.4646 90.0133L114.84 59.1928Z" fill="#75BB23"/>
<path d="M92.4646 90.0133V128.116L127.23 176L163.433 149.677L128.668 101.788L92.4646 90.0133Z" fill="#4285F4"/>
<path d="M128.668 101.788L184.934 83.4921L171.107 40.8972L114.84 59.1928L92.4646 90.0133L128.668 101.788Z" fill="#FF68FF"/>
<path d="M70.0944 59.1928L13.8275 40.8972L0 83.4921L56.2668 101.788L92.4646 90.0133L70.0944 59.1928Z" fill="#FFD208"/>
<path d="M56.2668 101.788L21.5015 149.677L57.7044 176L92.4646 128.116V90.0133L56.2668 101.788Z" fill="#FE6A46"/>
<path d="M249.351 54.7004H234.815L219.431 31.369V54.7004H204.895V8.30157H219.431L234.815 32.0212V8.30157H249.351V54.6953V54.7004Z" fill="#2D5334"/>
<path d="M284.975 47.6876H269.523L267.233 54.7005H251.978L268.934 8.30676H285.693L302.587 54.7005H287.265L284.975 47.6876ZM281.438 36.7413L277.249 23.8334L273.06 36.7413H281.443H281.438Z" fill="#2D5334"/>
<path d="M336.712 8.30157V19.8327H324.404V54.6953H309.868V19.8379H297.69V8.30675H336.712V8.30157Z" fill="#2D5334"/>
<path d="M354.128 8.30157V54.6953H339.592V8.30157H354.128Z" fill="#2D5334"/>
<path d="M371.177 52.0764C367.531 50.0217 364.641 47.1855 362.5 43.5575C360.359 39.9294 359.294 35.8459 359.294 31.3017C359.294 26.7576 360.364 22.6741 362.5 19.046C364.636 15.4231 367.531 12.5921 371.177 10.5581C374.823 8.52929 378.825 7.5097 383.19 7.5097C387.554 7.5097 391.546 8.52411 395.171 10.5581C398.791 12.5869 401.661 15.418 403.781 19.046C405.896 22.6741 406.956 26.7576 406.956 31.3017C406.956 35.8459 405.896 39.9294 403.781 43.5575C401.666 47.1855 398.78 50.0217 395.14 52.0764C391.494 54.1311 387.513 55.1559 383.19 55.1559C378.866 55.1559 374.817 54.1311 371.177 52.0764ZM389.871 38.8063C391.443 36.9483 392.229 34.4485 392.229 31.3017C392.229 28.155 391.443 25.5879 389.871 23.7351C388.299 21.8771 386.075 20.9506 383.19 20.9506C380.304 20.9506 378.018 21.8771 376.446 23.7351C374.874 25.5931 374.088 28.1136 374.088 31.3017C374.088 34.4899 374.874 36.9483 376.446 38.8063C378.018 40.6643 380.268 41.5907 383.19 41.5907C386.111 41.5907 388.299 40.6643 389.871 38.8063Z" fill="#2D5334"/>
<path d="M456.475 54.7004H441.939L426.555 31.369V54.7004H412.019V8.30157H426.555L441.939 32.0212V8.30157H456.475V54.6953V54.7004Z" fill="#2D5334"/>
<path d="M492.104 47.6876H476.652L474.361 54.7005H459.107L476.063 8.30676H492.822L509.716 54.7005H494.394L492.104 47.6876ZM488.566 36.7413L484.378 23.8334L480.189 36.7413H488.572H488.566Z" fill="#2D5334"/>
<path d="M526.874 43.692H540.888V54.7004H512.338V8.30157H526.874V43.6869V43.692Z" fill="#2D5334"/>
<path d="M240.772 88.2898C239.417 90.6706 237.421 92.5596 234.779 93.957C232.136 95.3544 228.94 96.0531 225.186 96.0531H219.426V110.798H204.89V64.4046H225.186C230.859 64.4046 235.213 65.8486 238.248 68.7314C241.284 71.6142 242.799 75.4803 242.799 80.3298C242.799 83.2592 242.122 85.909 240.772 88.2898ZM228.072 80.3298C228.072 77.4884 226.567 76.0703 223.552 76.0703H219.426V84.5893H223.552C226.562 84.5893 228.072 83.1712 228.072 80.3298Z" fill="#2D5334"/>
<path d="M271.282 103.791H255.83L253.539 110.803H238.285L255.241 64.4098H272L288.894 110.803H273.572L271.282 103.791ZM267.744 92.8443L263.556 79.9365L259.367 92.8443H267.75H267.744Z" fill="#2D5334"/>
<path d="M314.827 110.803L306.119 94.1589H306.052V110.803H291.516V64.4098H313.121C316.875 64.4098 320.081 65.0774 322.744 66.4076C325.408 67.7428 327.404 69.5543 328.738 71.8471C330.067 74.1398 330.734 76.7276 330.734 79.6104C330.734 82.7106 329.87 85.464 328.148 87.8654C326.421 90.2669 323.949 91.9955 320.717 93.041L330.801 110.798H314.827V110.803ZM306.057 84.4599H311.818C313.214 84.4599 314.264 84.1442 314.962 83.5076C315.66 82.8762 316.012 81.8825 316.012 80.5265C316.012 79.305 315.65 78.3424 314.931 77.6437C314.212 76.945 313.173 76.5931 311.823 76.5931H306.062V84.4547L306.057 84.4599Z" fill="#2D5334"/>
<path d="M362.495 110.803L349.009 90.6861V110.803H334.473V64.4098H349.009V83.9372L362.298 64.4098H378.732L362.759 86.6233L379.782 110.803H362.495Z" fill="#2D5334"/>
<path d="M396.51 75.2836C398.367 71.7021 401.014 68.9177 404.463 66.9303C407.913 64.9429 411.972 63.9492 416.641 63.9492C420.659 63.9492 424.248 64.7048 427.413 66.2109C430.578 67.717 433.153 69.8493 435.138 72.5975C437.124 75.3509 438.443 78.5598 439.1 82.2292H423.778C423.079 80.7024 422.087 79.5121 420.799 78.6581C419.511 77.8041 418.038 77.3797 416.378 77.3797C413.932 77.3797 412.003 78.2958 410.581 80.1331C409.164 81.9704 408.45 84.4392 408.45 87.5393C408.45 90.6395 409.159 93.1082 410.581 94.9456C411.998 96.7829 413.932 97.699 416.378 97.699C418.038 97.699 419.511 97.2746 420.799 96.4206C422.087 95.5666 423.079 94.3763 423.778 92.8495H439.1C438.443 96.5189 437.124 99.7278 435.138 102.481C433.153 105.235 430.578 107.362 427.413 108.868C424.248 110.374 420.659 111.13 416.641 111.13C411.972 111.13 407.913 110.136 404.463 108.148C401.014 106.161 398.362 103.377 396.51 99.7951C394.654 96.2136 393.728 92.1301 393.728 87.5393C393.728 82.9486 394.654 78.8703 396.51 75.2836Z" fill="#2D5334"/>
<path d="M457.364 64.4046V110.798H442.828V64.4046H457.364Z" fill="#2D5334"/>
<path d="M499.271 64.4046V75.9357H486.963V110.798H472.427V75.9357H460.249V64.4046H499.271Z" fill="#2D5334"/>
<path d="M547 64.4046L530.37 96.7104V110.798H515.834V96.7104L499.203 64.4046H515.834L523.234 80.8525L530.633 64.4046H547Z" fill="#2D5334"/>
<path d="M209.311 163.465C205.712 160.867 203.757 157.052 203.452 152.032H218.903C219.121 154.697 220.3 156.028 222.44 156.028C223.226 156.028 223.894 155.841 224.437 155.469C224.979 155.096 225.254 154.516 225.254 153.73C225.254 152.638 224.664 151.753 223.485 151.075C222.306 150.397 220.475 149.625 217.983 148.746C215.015 147.695 212.558 146.67 210.619 145.666C208.675 144.662 207.005 143.197 205.608 141.277C204.212 139.357 203.535 136.888 203.576 133.871C203.576 130.859 204.352 128.292 205.903 126.17C207.455 124.053 209.57 122.443 212.253 121.351C214.937 120.259 217.962 119.711 221.324 119.711C226.996 119.711 231.505 121.02 234.846 123.644C238.186 126.268 239.939 129.958 240.115 134.72H224.468C224.426 133.41 224.095 132.468 223.485 131.904C222.875 131.335 222.13 131.05 221.256 131.05C220.646 131.05 220.144 131.257 219.751 131.671C219.358 132.085 219.162 132.665 219.162 133.41C219.162 134.461 219.741 135.32 220.899 135.998C222.058 136.676 223.899 137.494 226.433 138.456C229.354 139.549 231.769 140.599 233.667 141.603C235.565 142.607 237.214 144.005 238.611 145.795C240.007 147.586 240.705 149.838 240.705 152.544C240.705 155.386 240.007 157.927 238.611 160.178C237.214 162.43 235.182 164.189 232.524 165.452C229.861 166.72 226.696 167.352 223.03 167.352C217.487 167.352 212.915 166.053 209.311 163.454V163.465Z" fill="#2D5334"/>
<path d="M259.367 132.106V137.81H273.774V148.751H259.367V155.303H275.734V166.901H244.831V120.508H275.734V132.106H259.367Z" fill="#2D5334"/>
<path d="M295.379 132.106V137.81H309.786V148.751H295.379V155.303H311.745V166.901H280.843V120.508H311.745V132.106H295.379Z" fill="#2D5334"/>
<path d="M348.905 123.458C352.551 125.424 355.354 128.157 357.319 131.651C359.284 135.144 360.266 139.119 360.266 143.575C360.266 148.031 359.284 151.965 357.319 155.5C355.354 159.04 352.551 161.824 348.905 163.853C345.26 165.882 341.014 166.901 336.169 166.901H316.855V120.508H336.169C341.014 120.508 345.26 121.491 348.905 123.458ZM342.653 151.24C344.572 149.449 345.534 146.893 345.534 143.575C345.534 140.258 344.572 137.701 342.653 135.91C340.73 134.119 338.134 133.224 334.86 133.224H331.391V153.931H334.86C338.134 153.931 340.73 153.036 342.653 151.245V151.24Z" fill="#2D5334"/>
</g>
<defs>
<clipPath id="clip0_9_252">
<rect width="547" height="176" fill="white"/>
</clipPath>
</defs>
</svg>
