<svg width="568" height="51" viewBox="0 0 568 51" fill="none" xmlns="http://www.w3.org/2000/svg">
<path d="M33.3377 17.1519V0H20.3491V17.1519L26.8454 26.0834L33.3377 17.1519Z" fill="#75BB23"/>
<path d="M26.8454 26.0834V37.125L36.9339 51L47.4465 43.3712L37.3539 29.4962L26.8454 26.0834Z" fill="#4285F4"/>
<path d="M37.3539 29.4963L53.6868 24.1933L49.6746 11.8489L33.3377 17.1519L26.8454 26.0835L37.3539 29.4963Z" fill="#FF68FF"/>
<path d="M20.349 17.1519L4.01621 11.8489L0 24.1933L16.3328 29.4963L26.8454 26.0835L20.349 17.1519Z" fill="#FFD208"/>
<path d="M16.3328 29.4962L6.2403 43.3712L16.7528 51L26.8454 37.125V26.0834L16.3328 29.4962Z" fill="#FE6A46"/>
<path d="M88.6725 41.1253H80.5561L71.9677 28.1256V41.1253H63.8513V15.2697H71.9677L80.5561 28.4892V15.2697H88.6725V41.1253Z" fill="#2D5334"/>
<path d="M108.562 37.217H99.9331L98.653 41.1253H90.1366L99.6051 15.2697H108.962L118.394 41.1253H109.842L108.562 37.217ZM106.589 31.1187L104.249 23.9255L101.909 31.1187H106.589Z" fill="#2D5334"/>
<path d="M137.447 15.2697V21.6956H130.575V41.1253H122.458V21.6956H115.658V15.2697H137.443H137.447Z" fill="#2D5334"/>
<path d="M147.172 15.2697V41.1253H139.055V15.2697H147.172Z" fill="#2D5334"/>
<path d="M156.688 39.6626C154.652 38.5197 153.04 36.9372 151.844 34.9151C150.648 32.893 150.052 30.6192 150.052 28.0855C150.052 25.5519 150.648 23.2781 151.844 21.256C153.036 19.2379 154.652 17.6594 156.688 16.5284C158.724 15.3975 160.96 14.83 163.396 14.83C165.833 14.83 168.065 15.3975 170.085 16.5284C172.109 17.6594 173.709 19.2379 174.893 21.256C176.073 23.2781 176.665 25.5519 176.665 28.0855C176.665 30.6192 176.073 32.893 174.893 34.9151C173.709 36.9372 172.101 38.5197 170.069 39.6626C168.033 40.8056 165.809 41.381 163.396 41.381C160.984 41.381 158.724 40.8096 156.688 39.6626ZM167.125 32.2696C168.001 31.2346 168.441 29.8399 168.441 28.0895C168.441 26.3392 168.001 24.9085 167.125 23.8735C166.249 22.8385 165.004 22.323 163.396 22.323C161.788 22.323 160.508 22.8425 159.632 23.8735C158.756 24.9085 158.316 26.3152 158.316 28.0895C158.316 29.8639 158.756 31.2386 159.632 32.2696C160.508 33.3046 161.764 33.8201 163.396 33.8201C165.028 33.8201 166.249 33.3046 167.125 32.2696Z" fill="#2D5334"/>
<path d="M204.314 41.1253H196.198L187.61 28.1256V41.1253H179.493V15.2697H187.61L196.198 28.4892V15.2697H204.314V41.1253Z" fill="#2D5334"/>
<path d="M224.204 37.217H215.575L214.295 41.1253H205.779L215.247 15.2697H224.604L234.036 41.1253H225.484L224.204 37.217ZM222.227 31.1187L219.887 23.9255L217.547 31.1187H222.227Z" fill="#2D5334"/>
<path d="M243.616 34.9911H251.441V41.1253H235.504V15.2697H243.62V34.9911H243.616Z" fill="#2D5334"/>
<path d="M280.246 28.5811C279.49 29.9079 278.374 30.9629 276.902 31.7421C275.426 32.5214 273.642 32.909 271.546 32.909H268.33V41.1253H260.213V15.2697H271.546C274.714 15.2697 277.146 16.0729 278.838 17.6794C280.53 19.2859 281.378 21.4398 281.378 24.1453C281.378 25.7758 280.998 27.2544 280.246 28.5811ZM273.154 24.1453C273.154 22.5628 272.314 21.7715 270.63 21.7715H268.326V26.5191H270.63C272.31 26.5191 273.154 25.7278 273.154 24.1453Z" fill="#2D5334"/>
<path d="M297.279 37.217H288.651L287.371 41.1253H278.854L288.323 15.2697H297.679L307.112 41.1253H298.559L297.279 37.217ZM295.303 31.1187L292.963 23.9255L290.623 31.1187H295.303Z" fill="#2D5334"/>
<path d="M321.593 41.1253L316.732 31.85H316.696V41.1253H308.58V15.2697H320.644C322.741 15.2697 324.533 15.6413 326.017 16.3846C327.505 17.1279 328.617 18.139 329.361 19.4177C330.105 20.6965 330.477 22.1392 330.477 23.7457C330.477 25.476 329.997 27.0066 329.033 28.3453C328.069 29.6841 326.689 30.6472 324.885 31.2306L330.513 41.1293H321.593V41.1253ZM316.692 26.4431H319.908C320.688 26.4431 321.272 26.2673 321.665 25.9116C322.053 25.56 322.249 25.0045 322.249 24.2492C322.249 23.5698 322.049 23.0343 321.645 22.6427C321.24 22.2551 320.664 22.0593 319.908 22.0593H316.692V26.4431Z" fill="#2D5334"/>
<path d="M348.202 41.1253L340.673 29.9159V41.1253H332.557V15.2697H340.673V26.1514L348.094 15.2697H357.27L348.35 27.65L357.854 41.1253H348.202Z" fill="#2D5334"/>
<path d="M367.191 21.3319C368.227 19.3378 369.707 17.7832 371.631 16.6763C373.555 15.5693 375.823 15.0139 378.431 15.0139C380.671 15.0139 382.676 15.4335 384.444 16.2727C386.212 17.1119 387.648 18.2988 388.756 19.8333C389.864 21.3679 390.6 23.1582 390.968 25.2003H382.416C382.028 24.3491 381.471 23.6857 380.751 23.2101C380.031 22.7346 379.211 22.4988 378.283 22.4988C376.919 22.4988 375.839 23.0103 375.047 24.0334C374.255 25.0564 373.859 26.4311 373.859 28.1615C373.859 29.8919 374.255 31.2666 375.047 32.2896C375.839 33.3126 376.919 33.8241 378.283 33.8241C379.207 33.8241 380.031 33.5884 380.751 33.1128C381.471 32.6373 382.024 31.9739 382.416 31.1227H390.968C390.604 33.1688 389.864 34.9591 388.756 36.4896C387.648 38.0242 386.208 39.2111 384.444 40.0503C382.676 40.8895 380.671 41.3091 378.431 41.3091C375.823 41.3091 373.555 40.7536 371.631 39.6467C369.707 38.5397 368.227 36.9892 367.191 34.9911C366.155 32.9929 365.639 30.7191 365.639 28.1615C365.639 25.6039 366.155 23.33 367.191 21.3319Z" fill="#2D5334"/>
<path d="M401.169 15.2697V41.1253H393.052V15.2697H401.169Z" fill="#2D5334"/>
<path d="M424.566 15.2697V21.6956H417.693V41.1253H409.577V21.6956H402.777V15.2697H424.562H424.566Z" fill="#2D5334"/>
<path d="M451.215 15.2697L441.931 33.2727V41.1253H433.814V33.2727L424.53 15.2697H433.814L437.946 24.437L442.079 15.2697H451.219H451.215Z" fill="#2D5334"/>
<path d="M461.724 39.2071C459.712 37.7605 458.623 35.6345 458.451 32.8331H467.08C467.2 34.3197 467.86 35.059 469.052 35.059C469.492 35.059 469.86 34.9551 470.168 34.7473C470.472 34.5395 470.624 34.2158 470.624 33.7802C470.624 33.1728 470.296 32.6772 469.636 32.3016C468.976 31.926 467.956 31.4944 466.564 31.0068C464.908 30.4234 463.536 29.8519 462.452 29.2924C461.368 28.733 460.436 27.9177 459.655 26.8467C458.875 25.7757 458.499 24.401 458.523 22.7186C458.523 21.0402 458.955 19.6095 459.82 18.4267C460.684 17.2478 461.868 16.3526 463.364 15.7412C464.864 15.1338 466.548 14.826 468.428 14.826C471.596 14.826 474.112 15.5574 475.976 17.016C477.84 18.4786 478.82 20.5327 478.92 23.1862H470.184C470.16 22.4549 469.976 21.9314 469.636 21.6157C469.296 21.3 468.88 21.1401 468.392 21.1401C468.052 21.1401 467.772 21.256 467.552 21.4878C467.332 21.7196 467.224 22.0433 467.224 22.4549C467.224 23.0383 467.548 23.5219 468.192 23.8975C468.836 24.2772 469.868 24.7327 471.28 25.2682C472.912 25.8757 474.26 26.4631 475.32 27.0226C476.38 27.582 477.3 28.3613 478.08 29.3604C478.86 30.3594 479.249 31.6142 479.249 33.1208C479.249 34.7033 478.86 36.122 478.08 37.3768C477.3 38.6316 476.168 39.6107 474.68 40.3181C473.192 41.0254 471.428 41.3771 469.38 41.3771C466.284 41.3771 463.732 40.6537 461.724 39.2031V39.2071Z" fill="#2D5334"/>
<path d="M550.272 39.2071C548.26 37.7605 547.172 35.6345 547 32.8331H555.628C555.748 34.3197 556.408 35.059 557.601 35.059C558.041 35.059 558.409 34.9551 558.717 34.7473C559.021 34.5395 559.173 34.2158 559.173 33.7802C559.173 33.1728 558.845 32.6772 558.185 32.3016C557.525 31.926 556.504 31.4944 555.112 31.0068C553.456 30.4234 552.084 29.8519 551 29.2924C549.916 28.733 548.984 27.9177 548.204 26.8467C547.424 25.7757 547.048 24.401 547.072 22.7186C547.072 21.0402 547.504 19.6095 548.368 18.4267C549.232 17.2478 550.416 16.3526 551.912 15.7412C553.412 15.1338 555.096 14.826 556.977 14.826C560.145 14.826 562.661 15.5574 564.525 17.016C566.389 18.4786 567.369 20.5327 567.469 23.1862H558.733C558.709 22.4549 558.525 21.9314 558.185 21.6157C557.845 21.3 557.429 21.1401 556.941 21.1401C556.601 21.1401 556.32 21.256 556.1 21.4878C555.88 21.7196 555.772 22.0433 555.772 22.4549C555.772 23.0383 556.097 23.5219 556.741 23.8975C557.385 24.2772 558.417 24.7327 559.829 25.2682C561.461 25.8757 562.809 26.4631 563.869 27.0226C564.929 27.582 565.849 28.3613 566.629 29.3604C567.409 30.3594 567.797 31.6142 567.797 33.1208C567.797 34.7033 567.409 36.122 566.629 37.3768C565.849 38.6316 564.717 39.6107 563.229 40.3181C561.741 41.0254 559.977 41.3771 557.929 41.3771C554.832 41.3771 552.28 40.6537 550.272 39.2031V39.2071Z" fill="#2D5334"/>
<path d="M489.669 21.7316V24.9086H497.709V31.0068H489.669V34.6594H498.81V41.1253H481.557V15.2697H498.81V21.7316H489.669Z" fill="#2D5334"/>
<path d="M509.774 21.7316V24.9086H517.814V31.0068H509.774V34.6594H518.915V41.1253H501.662V15.2697H518.915V21.7316H509.774Z" fill="#2D5334"/>
<path d="M539.66 16.9121C541.696 18.0071 543.26 19.5296 544.356 21.4758C545.452 23.426 546 25.6399 546 28.1216C546 30.6032 545.452 32.7972 544.356 34.7673C543.26 36.7374 541.692 38.292 539.66 39.4229C537.624 40.5539 535.255 41.1213 532.551 41.1213H521.767V15.2697H532.551C535.255 15.2697 537.628 15.8171 539.66 16.9121ZM536.167 32.3975C537.24 31.3985 537.776 29.9758 537.776 28.1256C537.776 26.2753 537.24 24.8526 536.167 23.8536C535.095 22.8545 533.643 22.355 531.819 22.355H529.883V33.8961H531.819C533.647 33.8961 535.095 33.3966 536.167 32.3975Z" fill="#2D5334"/>
</svg>
